<svg width="191" height="46" viewBox="0 0 191 46" fill="none" xmlns="http://www.w3.org/2000/svg">
<rect y="39" width="191" height="7" fill="white"/>
<path d="M22.5568 15.875H17.5795C17.4886 15.2311 17.303 14.6591 17.0227 14.1591C16.7424 13.6515 16.3826 13.2197 15.9432 12.8636C15.5038 12.5076 14.9962 12.2348 14.4205 12.0455C13.8523 11.8561 13.2348 11.7614 12.5682 11.7614C11.3636 11.7614 10.3144 12.0606 9.42045 12.6591C8.52652 13.25 7.83333 14.1136 7.34091 15.25C6.84849 16.3788 6.60227 17.75 6.60227 19.3636C6.60227 21.0227 6.84849 22.4167 7.34091 23.5455C7.84091 24.6742 8.53788 25.5265 9.43182 26.1023C10.3258 26.678 11.3598 26.9659 12.5341 26.9659C13.1932 26.9659 13.803 26.8788 14.3636 26.7045C14.9318 26.5303 15.4356 26.2765 15.875 25.9432C16.3144 25.6023 16.678 25.1894 16.9659 24.7045C17.2614 24.2197 17.4659 23.6667 17.5795 23.0455L22.5568 23.0682C22.428 24.1364 22.1061 25.1667 21.5909 26.1591C21.0833 27.1439 20.3977 28.0265 19.5341 28.8068C18.678 29.5795 17.6553 30.1932 16.4659 30.6477C15.2841 31.0947 13.947 31.3182 12.4545 31.3182C10.3788 31.3182 8.52273 30.8485 6.88636 29.9091C5.25758 28.9697 3.9697 27.6098 3.02273 25.8295C2.08333 24.0492 1.61364 21.8939 1.61364 19.3636C1.61364 16.8258 2.09091 14.6667 3.04545 12.8864C4 11.1061 5.29545 9.75 6.93182 8.81818C8.56818 7.87879 10.4091 7.40909 12.4545 7.40909C13.803 7.40909 15.053 7.59848 16.2045 7.97727C17.3636 8.35606 18.3902 8.90909 19.2841 9.63636C20.178 10.3561 20.9053 11.2386 21.4659 12.2841C22.0341 13.3295 22.3977 14.5265 22.5568 15.875ZM33.8807 31.3409C32.1155 31.3409 30.589 30.9659 29.3011 30.2159C28.0208 29.4583 27.0322 28.4053 26.3352 27.0568C25.6383 25.7008 25.2898 24.1288 25.2898 22.3409C25.2898 20.5379 25.6383 18.9621 26.3352 17.6136C27.0322 16.2576 28.0208 15.2045 29.3011 14.4545C30.589 13.697 32.1155 13.3182 33.8807 13.3182C35.6458 13.3182 37.1686 13.697 38.4489 14.4545C39.7367 15.2045 40.7292 16.2576 41.4261 17.6136C42.1231 18.9621 42.4716 20.5379 42.4716 22.3409C42.4716 24.1288 42.1231 25.7008 41.4261 27.0568C40.7292 28.4053 39.7367 29.4583 38.4489 30.2159C37.1686 30.9659 35.6458 31.3409 33.8807 31.3409ZM33.9034 27.5909C34.7064 27.5909 35.3769 27.3636 35.9148 26.9091C36.4527 26.447 36.858 25.8182 37.1307 25.0227C37.411 24.2273 37.5511 23.322 37.5511 22.3068C37.5511 21.2917 37.411 20.3864 37.1307 19.5909C36.858 18.7955 36.4527 18.1667 35.9148 17.7045C35.3769 17.2424 34.7064 17.0114 33.9034 17.0114C33.0928 17.0114 32.411 17.2424 31.858 17.7045C31.3125 18.1667 30.8996 18.7955 30.6193 19.5909C30.3466 20.3864 30.2102 21.2917 30.2102 22.3068C30.2102 23.322 30.3466 24.2273 30.6193 25.0227C30.8996 25.8182 31.3125 26.447 31.858 26.9091C32.411 27.3636 33.0928 27.5909 33.9034 27.5909ZM60.142 18.5227L55.7102 18.7955C55.6345 18.4167 55.4716 18.0758 55.2216 17.7727C54.9716 17.4621 54.642 17.2159 54.233 17.0341C53.8314 16.8447 53.3504 16.75 52.7898 16.75C52.0398 16.75 51.4072 16.9091 50.892 17.2273C50.3769 17.5379 50.1193 17.9545 50.1193 18.4773C50.1193 18.8939 50.286 19.2462 50.6193 19.5341C50.9527 19.822 51.5246 20.053 52.3352 20.2273L55.4943 20.8636C57.1913 21.2121 58.4564 21.7727 59.2898 22.5455C60.1231 23.3182 60.5398 24.3333 60.5398 25.5909C60.5398 26.7348 60.2027 27.7386 59.5284 28.6023C58.8617 29.4659 57.9451 30.1402 56.7784 30.625C55.6193 31.1023 54.2822 31.3409 52.767 31.3409C50.4564 31.3409 48.6155 30.8598 47.2443 29.8977C45.8807 28.928 45.0814 27.6098 44.8466 25.9432L49.608 25.6932C49.7519 26.3977 50.1004 26.9356 50.6534 27.3068C51.2064 27.6705 51.9148 27.8523 52.7784 27.8523C53.6269 27.8523 54.3087 27.6894 54.8239 27.3636C55.3466 27.0303 55.6117 26.6023 55.6193 26.0795C55.6117 25.6402 55.4261 25.2803 55.0625 25C54.6989 24.7121 54.1383 24.4924 53.3807 24.3409L50.358 23.7386C48.6534 23.3977 47.3845 22.8068 46.5511 21.9659C45.7254 21.125 45.3125 20.053 45.3125 18.75C45.3125 17.6288 45.6155 16.6629 46.2216 15.8523C46.8352 15.0417 47.6951 14.4167 48.8011 13.9773C49.9148 13.5379 51.2178 13.3182 52.7102 13.3182C54.9148 13.3182 56.6496 13.7841 57.9148 14.7159C59.1875 15.6477 59.9299 16.9167 60.142 18.5227ZM72.8722 13.5455V17.1818H62.3608V13.5455H72.8722ZM64.7472 9.36364H69.5881V25.6364C69.5881 26.0833 69.6563 26.4318 69.7926 26.6818C69.929 26.9242 70.1184 27.0947 70.3608 27.1932C70.6108 27.2917 70.8987 27.3409 71.2244 27.3409C71.4517 27.3409 71.679 27.322 71.9062 27.2841C72.1335 27.2386 72.3078 27.2045 72.429 27.1818L73.1903 30.7841C72.9479 30.8598 72.607 30.947 72.1676 31.0455C71.7282 31.1515 71.1941 31.2159 70.5653 31.2386C69.3987 31.2841 68.3759 31.1288 67.4972 30.7727C66.6259 30.4167 65.9479 29.8636 65.4631 29.1136C64.9782 28.3636 64.7396 27.4167 64.7472 26.2727V9.36364ZM81.1392 31L74.7756 7.72727H77.6392L82.5028 26.6818H82.7301L87.6847 7.72727H90.8665L95.821 26.6818H96.0483L100.912 7.72727H103.776L97.4119 31H94.5028L89.3665 12.4545H89.1847L84.0483 31H81.1392ZM110.435 31.4091C109.329 31.4091 108.325 31.2008 107.423 30.7841C106.522 30.3598 105.806 29.75 105.276 28.9545C104.745 28.1515 104.48 27.1818 104.48 26.0455C104.48 25.0455 104.677 24.2348 105.071 23.6136C105.465 22.9848 105.991 22.4924 106.651 22.1364C107.31 21.7803 108.037 21.5152 108.832 21.3409C109.635 21.1591 110.442 21.0152 111.253 20.9091C112.313 20.7727 113.173 20.6705 113.832 20.6023C114.499 20.5265 114.984 20.4015 115.287 20.2273C115.598 20.053 115.753 19.75 115.753 19.3182V19.2273C115.753 18.1061 115.446 17.2348 114.832 16.6136C114.226 15.9924 113.306 15.6818 112.071 15.6818C110.791 15.6818 109.787 15.9621 109.06 16.5227C108.332 17.0833 107.821 17.6818 107.526 18.3182L104.98 17.4091C105.435 16.3485 106.041 15.5227 106.798 14.9318C107.563 14.3333 108.397 13.9167 109.298 13.6818C110.207 13.4394 111.101 13.3182 111.98 13.3182C112.541 13.3182 113.185 13.3864 113.912 13.5227C114.647 13.6515 115.355 13.9205 116.037 14.3295C116.726 14.7386 117.298 15.3561 117.753 16.1818C118.207 17.0076 118.435 18.1136 118.435 19.5V31H115.753V28.6364H115.616C115.435 29.0152 115.132 29.4205 114.707 29.8523C114.283 30.2841 113.719 30.6515 113.014 30.9545C112.31 31.2576 111.45 31.4091 110.435 31.4091ZM110.844 29C111.904 29 112.798 28.7917 113.526 28.375C114.26 27.9583 114.813 27.4205 115.185 26.7614C115.563 26.1023 115.753 25.4091 115.753 24.6818V22.2273C115.639 22.3636 115.389 22.4886 115.003 22.6023C114.624 22.7083 114.185 22.803 113.685 22.8864C113.192 22.9621 112.711 23.0303 112.241 23.0909C111.779 23.1439 111.404 23.1894 111.116 23.2273C110.42 23.3182 109.768 23.4659 109.162 23.6705C108.563 23.8674 108.079 24.1667 107.707 24.5682C107.344 24.9621 107.162 25.5 107.162 26.1818C107.162 27.1136 107.507 27.8182 108.196 28.2955C108.893 28.7652 109.776 29 110.844 29ZM123.33 31V13.5455H125.92V16.1818H126.102C126.42 15.3182 126.996 14.6174 127.83 14.0795C128.663 13.5417 129.602 13.2727 130.648 13.2727C130.845 13.2727 131.091 13.2765 131.386 13.2841C131.682 13.2917 131.905 13.303 132.057 13.3182V16.0455C131.966 16.0227 131.758 15.9886 131.432 15.9432C131.114 15.8902 130.777 15.8636 130.42 15.8636C129.572 15.8636 128.814 16.0417 128.148 16.3977C127.489 16.7462 126.966 17.2311 126.58 17.8523C126.201 18.4659 126.011 19.1667 126.011 19.9545V31H123.33ZM141.295 31.3636C139.841 31.3636 138.557 30.9962 137.443 30.2614C136.33 29.5189 135.458 28.4735 134.83 27.125C134.201 25.7689 133.886 24.1667 133.886 22.3182C133.886 20.4848 134.201 18.8939 134.83 17.5455C135.458 16.197 136.333 15.1553 137.455 14.4205C138.576 13.6856 139.871 13.3182 141.341 13.3182C142.477 13.3182 143.375 13.5076 144.034 13.8864C144.701 14.2576 145.208 14.6818 145.557 15.1591C145.913 15.6288 146.189 16.0152 146.386 16.3182H146.614V7.72727H149.295V31H146.705V28.3182H146.386C146.189 28.6364 145.909 29.0379 145.545 29.5227C145.182 30 144.663 30.428 143.989 30.8068C143.314 31.178 142.417 31.3636 141.295 31.3636ZM141.659 28.9545C142.735 28.9545 143.644 28.6742 144.386 28.1136C145.129 27.5455 145.693 26.7614 146.08 25.7614C146.466 24.7538 146.659 23.5909 146.659 22.2727C146.659 20.9697 146.47 19.8295 146.091 18.8523C145.712 17.8674 145.152 17.1023 144.409 16.5568C143.667 16.0038 142.75 15.7273 141.659 15.7273C140.523 15.7273 139.576 16.0189 138.818 16.6023C138.068 17.178 137.504 17.9621 137.125 18.9545C136.754 19.9394 136.568 21.0455 136.568 22.2727C136.568 23.5152 136.758 24.6439 137.136 25.6591C137.523 26.6667 138.091 27.4697 138.841 28.0682C139.598 28.6591 140.538 28.9545 141.659 28.9545ZM161.898 31.3636C160.216 31.3636 158.765 30.9924 157.545 30.25C156.333 29.5 155.398 28.4545 154.739 27.1136C154.087 25.7652 153.761 24.197 153.761 22.4091C153.761 20.6212 154.087 19.0455 154.739 17.6818C155.398 16.3106 156.314 15.2424 157.489 14.4773C158.67 13.7045 160.049 13.3182 161.625 13.3182C162.534 13.3182 163.432 13.4697 164.318 13.7727C165.205 14.0758 166.011 14.5682 166.739 15.25C167.466 15.9242 168.045 16.8182 168.477 17.9318C168.909 19.0455 169.125 20.4167 169.125 22.0455V23.1818H155.67V20.8636H166.398C166.398 19.8788 166.201 19 165.807 18.2273C165.42 17.4545 164.867 16.8447 164.148 16.3977C163.436 15.9508 162.595 15.7273 161.625 15.7273C160.557 15.7273 159.633 15.9924 158.852 16.5227C158.08 17.0455 157.485 17.7273 157.068 18.5682C156.652 19.4091 156.443 20.3106 156.443 21.2727V22.8182C156.443 24.1364 156.67 25.2538 157.125 26.1705C157.587 27.0795 158.227 27.7727 159.045 28.25C159.864 28.7197 160.814 28.9545 161.898 28.9545C162.602 28.9545 163.239 28.8561 163.807 28.6591C164.383 28.4545 164.879 28.1515 165.295 27.75C165.712 27.3409 166.034 26.8333 166.261 26.2273L168.852 26.9545C168.58 27.8333 168.121 28.6061 167.477 29.2727C166.833 29.9318 166.038 30.447 165.091 30.8182C164.144 31.1818 163.08 31.3636 161.898 31.3636ZM175.886 20.5V31H173.205V13.5455H175.795V16.2727H176.023C176.432 15.3864 177.053 14.6742 177.886 14.1364C178.72 13.5909 179.795 13.3182 181.114 13.3182C182.295 13.3182 183.33 13.5606 184.216 14.0455C185.102 14.5227 185.792 15.25 186.284 16.2273C186.777 17.197 187.023 18.4242 187.023 19.9091V31H184.341V20.0909C184.341 18.7197 183.985 17.6515 183.273 16.8864C182.561 16.1136 181.583 15.7273 180.341 15.7273C179.485 15.7273 178.72 15.9129 178.045 16.2841C177.379 16.6553 176.852 17.197 176.466 17.9091C176.08 18.6212 175.886 19.4848 175.886 20.5Z" fill="white"/>
</svg>
